<svg width="42" height="42" viewBox="0 0 42 42" fill="none" xmlns="http://www.w3.org/2000/svg">
<path fill-rule="evenodd" clip-rule="evenodd" d="M36.75 2.625H5.25C4.55381 2.625 3.88613 2.90156 3.39384 3.39384C2.90156 3.88613 2.625 4.55381 2.625 5.25V36.75C2.625 37.4462 2.90156 38.1139 3.39384 38.6062C3.88613 39.0984 4.55381 39.375 5.25 39.375H36.75C37.4462 39.375 38.1139 39.0984 38.6062 38.6062C39.0984 38.1139 39.375 37.4462 39.375 36.75V5.25C39.375 4.55381 39.0984 3.88613 38.6062 3.39384C38.1139 2.90156 37.4462 2.625 36.75 2.625ZM5.25 0C3.85761 0 2.52226 0.553123 1.53769 1.53769C0.553123 2.52226 0 3.85761 0 5.25L0 36.75C0 38.1424 0.553123 39.4777 1.53769 40.4623C2.52226 41.4469 3.85761 42 5.25 42H36.75C38.1424 42 39.4777 41.4469 40.4623 40.4623C41.4469 39.4777 42 38.1424 42 36.75V5.25C42 3.85761 41.4469 2.52226 40.4623 1.53769C39.4777 0.553123 38.1424 0 36.75 0L5.25 0Z" fill="#E6F52F"/>
<path d="M23.4411 17.2935L17.4299 18.0469L17.2146 19.0444L18.3959 19.2623C19.1676 19.446 19.3199 19.7243 19.1519 20.4934L17.2146 29.5969C16.7054 31.9515 17.4902 33.0593 19.3356 33.0593C20.7663 33.0593 22.4279 32.3978 23.1813 31.4895L23.4122 30.3975C22.8872 30.8595 22.1207 31.0433 21.6115 31.0433C20.8896 31.0433 20.6271 30.5366 20.8135 29.6441L23.4411 17.2935Z" fill="#E6F52F"/>
<path d="M21 14.4375C22.4497 14.4375 23.625 13.2622 23.625 11.8125C23.625 10.3628 22.4497 9.1875 21 9.1875C19.5503 9.1875 18.375 10.3628 18.375 11.8125C18.375 13.2622 19.5503 14.4375 21 14.4375Z" fill="#E6F52F"/>
</svg>
