<svg width="132" height="150" viewBox="0 0 132 150" fill="none" xmlns="http://www.w3.org/2000/svg">
<path d="M66.0007 150C74.9925 150 82.7356 144.569 86.1332 136.816H45.8682C49.2657 144.569 57.0092 150 66.0007 150Z" fill="#A600E0"/>
<path d="M111.411 72.6158V62.9883C111.411 42.5326 97.8135 25.195 79.1839 19.5322V13.1836C79.1839 5.91416 73.2698 0 66.0004 0C58.7309 0 52.8168 5.91416 52.8168 13.1836V19.5322C34.1869 25.195 20.5902 42.5323 20.5902 62.9883V72.6158C20.5902 90.5842 13.7412 107.622 1.30493 120.591C0.0861822 121.862 -0.256299 123.737 0.434522 125.357C1.12534 126.976 2.71616 128.027 4.47691 128.027H127.524C129.285 128.027 130.875 126.976 131.566 125.357C132.257 123.737 131.914 121.862 130.696 120.591C118.26 107.622 111.411 90.5839 111.411 72.6158ZM70.3949 17.7914C68.9485 17.652 67.4828 17.5781 66.0004 17.5781C64.5179 17.5781 63.0522 17.652 61.6058 17.7914V13.1836C61.6058 10.7604 63.5772 8.78906 66.0004 8.78906C68.4235 8.78906 70.3949 10.7604 70.3949 13.1836V17.7914Z" fill="#A600E0"/>
<path d="M123.129 62.9883C123.129 65.4153 125.097 67.3829 127.524 67.3829C129.951 67.3829 131.918 65.4153 131.918 62.9883C131.918 45.3809 125.062 28.8273 112.611 16.377C110.895 14.6611 108.113 14.6608 106.397 16.377C104.68 18.0932 104.68 20.8755 106.397 22.5918C117.187 33.3821 123.129 47.7285 123.129 62.9883V62.9883Z" fill="#A600E0"/>
<path d="M4.47656 67.3828C6.90352 67.3828 8.87109 65.4152 8.87109 62.9883C8.87109 47.7287 14.8137 33.3823 25.6037 22.592C27.3199 20.8758 27.3199 18.0935 25.6037 16.3772C23.8878 14.661 21.1052 14.661 19.389 16.3772C6.93867 28.8275 0.0820312 45.3809 0.0820312 62.9883C0.0820312 65.4152 2.04961 67.3828 4.47656 67.3828V67.3828Z" fill="#A600E0"/>
</svg>
