<svg width="150" height="150" viewBox="0 0 150 150" fill="none" xmlns="http://www.w3.org/2000/svg">
<path d="M145.711 20.5064C143.504 18.2959 139.924 18.2921 137.717 20.497L69.8968 88.1382L45.4274 61.5621C43.3131 59.267 39.7383 59.1182 37.4393 61.2323C35.1422 63.3466 34.9951 66.9232 37.1094 69.2203L65.5643 100.123C66.6064 101.256 68.0648 101.913 69.6026 101.945C69.6439 101.947 69.6838 101.947 69.7233 101.947C71.2177 101.947 72.6553 101.353 73.7144 100.298L145.699 28.5018C147.912 26.2972 147.915 22.7168 145.711 20.5064Z" fill="#1CC800"/>
<path d="M144.347 69.3466C141.224 69.3466 138.693 71.8772 138.693 75C138.693 110.122 110.122 138.693 75 138.693C39.8801 138.693 11.3065 110.122 11.3065 75C11.3065 39.8801 39.8801 11.3065 75 11.3065C78.1225 11.3065 80.6534 8.77588 80.6534 5.65342C80.6534 2.53066 78.1225 0 75 0C33.6445 0 0 33.6445 0 75C0 116.354 33.6445 150 75 150C116.354 150 150 116.354 150 75C150 71.8775 147.469 69.3466 144.347 69.3466Z" fill="#1CC800"/>
</svg>
