<svg width="42" height="37" viewBox="0 0 42 37" fill="none" xmlns="http://www.w3.org/2000/svg">
<path d="M41.1613 27.3218L26.5096 3.02323C25.9171 2.0964 25.1008 1.33365 24.136 0.805295C23.1712 0.276943 22.0889 0 20.9889 0C19.8889 0 18.8066 0.276943 17.8418 0.805295C16.8769 1.33365 16.0607 2.0964 15.4682 3.02323L0.816458 27.3218C0.298877 28.1846 0.0175623 29.1685 0.00079597 30.1744C-0.0159704 31.1804 0.232403 32.1731 0.720944 33.0526C1.28577 34.0427 2.10333 34.865 3.09006 35.4355C4.07679 36.0061 5.19732 36.3044 6.33713 36.3001H35.6406C36.773 36.3122 37.8884 36.0254 38.8745 35.4686C39.8605 34.9119 40.6823 34.1049 41.2568 33.129C41.7597 32.2403 42.016 31.2334 41.9992 30.2124C41.9824 29.1915 41.6932 28.1935 41.1613 27.3218ZM37.9139 31.2379C37.6843 31.6325 37.3511 31.9569 36.9504 32.1757C36.5497 32.3946 36.0968 32.4997 35.6406 32.4796H6.33713C5.881 32.4997 5.42807 32.3946 5.02737 32.1757C4.62668 31.9569 4.2935 31.6325 4.06391 31.2379C3.89625 30.9475 3.80799 30.6181 3.80799 30.2828C3.80799 29.9474 3.89625 29.618 4.06391 29.3276L18.7348 5.00991C18.9984 4.66168 19.3391 4.37927 19.7302 4.18482C20.1213 3.99037 20.5521 3.88917 20.9889 3.88917C21.4256 3.88917 21.8565 3.99037 22.2476 4.18482C22.6387 4.37927 22.9794 4.66168 23.243 5.00991L37.8948 29.3085C38.0689 29.5995 38.1624 29.9315 38.1658 30.2706C38.1692 30.6097 38.0822 30.9435 37.9139 31.2379Z" fill="#D54441"/>
<path d="M20.9884 28.659C22.0434 28.659 22.8987 27.8038 22.8987 26.7487C22.8987 25.6937 22.0434 24.8385 20.9884 24.8385C19.9334 24.8385 19.0781 25.6937 19.0781 26.7487C19.0781 27.8038 19.9334 28.659 20.9884 28.659Z" fill="#D54441"/>
<path d="M21.2833 11.3169C20.7767 11.3169 20.2908 11.5182 19.9326 11.8764C19.5743 12.2347 19.373 12.7206 19.373 13.2272V20.8683C19.373 21.3749 19.5743 21.8608 19.9326 22.219C20.2908 22.5773 20.7767 22.7785 21.2833 22.7785C21.7899 22.7785 22.2758 22.5773 22.6341 22.219C22.9923 21.8608 23.1936 21.3749 23.1936 20.8683V13.2272C23.1936 12.7206 22.9923 12.2347 22.6341 11.8764C22.2758 11.5182 21.7899 11.3169 21.2833 11.3169Z" fill="#D54441"/>
</svg>
